<svg id="Layer_1" data-name="Layer 1" xmlns="http://www.w3.org/2000/svg" xmlns:xlink="http://www.w3.org/1999/xlink" viewBox="0 0 528.09 1100.12"><defs><style>.cls-1{fill:none;}.cls-2{clip-path:url(#clip-path);}.cls-3{fill:#fafbfb;}</style><clipPath id="clip-path" transform="translate(-335.58 -40.01)"><rect class="cls-1" width="1200" height="1200"/></clipPath></defs><title>UP CSI_logo</title><g class="cls-2"><path class="cls-3" d="M584.67,836c0-22.41,0-44.53,0-66.65,0-.85-.09-1.7-.11-2.11-6.24-2.77-12.46-4.85-18-8.1-18.3-10.77-28.86-26.9-32.18-47.92-4.93-31.22,15.63-63.12,46.07-71.8,3.52-1,4.31-2.55,4.29-6-.16-21.55-.08-43.1-.08-65-17.6-4.84-32.16-14-42-29.72-7.48-11.86-10.51-24.81-10.09-38.81.84-28.3,18.08-48.93,51.94-61.48V368.94a67,67,0,0,1-35.36-20.78c-32.23-36-15.62-93.95,30.86-107.24,3.71-1.06,4.86-2.49,4.81-6.41-.25-19.82-.11-39.64-.11-59.46v-4.9c-19.34-5.15-34-16.11-43.31-33.67-6.08-11.46-9.77-24-7.37-36.73,6.82-36.15,31.46-58.38,61.34-59.66,36.32-1.56,64,24,68.95,53.47s-8.1,66.16-51.66,77.31v68.69c17.16,4.2,31,13.27,40.81,28,6,9,9.81,18.84,10.5,29.86,1,16.52-1.77,31.91-11.82,45.53-9.93,13.46-23.1,22-39.43,26V437c8.93,4.71,17.78,8.38,25.5,13.7a57.79,57.79,0,0,1,24.26,36.33c7.67,36.29-9.84,68.59-45.76,79.7-3.5,1.08-4.33,2.51-4.3,5.92.16,20.11.08,40.22.08,60.33v4.51c10,2.39,19.14,6.18,27.13,12.4,13.33,10.38,22,23.82,24.78,40.46,5.69,34.48-13.69,66.33-48.46,75.73-1.88.51-3.51.67-3.5,3.37.09,22.12,0,44.24,0,66.63,20.08,5.08,35.19,16.41,44.79,34.77,7.45,14.25,8.58,29.47,5.27,44.73a65.16,65.16,0,0,1-68.33,50.9C560.88,964.1,536.81,939.58,533,908c-3.7-30.82,15.54-63.22,51.66-72m13.78-376.32c-21.34-2.54-44.68,18.45-44.25,43.81.42,24.48,19.61,44,44.11,44,27.1,0,44.54-19.25,43.7-50.11-.59-21.55-24-40.48-43.56-37.71m43.66-155.23c0-25.38-19-44.63-44-44.54-24.26.09-43.54,19.9-43.89,44.38-.34,23.7,20,44.45,44.35,44.3,24.52-.15,43.56-19.3,43.56-44.14" transform="translate(-335.58 -40.01)"/><path class="cls-3" d="M811.54,337.81c11.23,2.75,21.23,7.43,29.63,15,12.07,10.95,19,24.32,21.73,40.69,4.91,29.83-14,64-48.68,73.13a4.15,4.15,0,0,0-2.56,2.9c-.15,22.27-.11,44.54-.11,66.71,4.7,1.74,9.27,3.09,13.55,5.06,26,12,40.48,37.29,38.34,66.51-1.92,26.22-21.29,49.46-48,57.13-3.17.91-4,2.16-4,5.27q.2,30.82,0,61.64c0,3,.54,4.43,3.85,5.36,29.53,8.28,48.87,34.71,48.15,65.36-.69,29.47-21.58,54.77-50.8,62.15-34.28,8.66-69.63-14-78.72-46.86-9.69-35,12.19-73.24,49.43-81.75.07-1.17.21-2.43.21-3.7,0-20.84-.06-41.67.09-62.51,0-3-.87-4-3.81-4.91-25.51-7.66-41.8-24.86-47.11-50.6-7.14-34.57,13.7-66.6,46-76.4,1.51-.46,3-.86,4.83-1.37V499.8c0-9.55-.12-19.1.07-28.65.06-3-.76-4.09-3.73-5-25.55-7.6-42-24.79-47.13-50.54-7.26-36.6,15.06-67.32,46.43-76.59,1.37-.4,2.74-.77,4.17-1.18V269.13c-17.42-4.24-31.24-13.57-41-28.53-7.88-12.08-12-25.52-10.77-39.84,2.58-31.3,24.46-57.17,56.93-61.14,47.12-5.77,77.3,32.33,74.83,69.62a65.93,65.93,0,0,1-47.3,58.58c-3.51,1-4.72,2.33-4.68,6.07.21,19.82.1,39.64.1,59.47Zm-58.31,64.71c-.36,23.6,19.9,44.41,43.87,44.32,25.06-.1,44.75-19.42,44.83-44.26A44.21,44.21,0,0,0,798,358.26c-25.12-.44-45.09,20.85-44.8,44.26m44.65,155.27c-20.76-2.61-44.6,16.93-44.62,43.56,0,25.91,22,44.73,44.3,44.35,24.72-.42,44.35-19.64,44.36-44.32s-19.12-43.6-44-43.6" transform="translate(-335.58 -40.01)"/><path class="cls-3" d="M387,467c-41.73-11.41-53.75-48.7-51.06-70,4.83-38.24,34.77-63.76,74.64-59.55,28.67,3,53.73,26.3,56.81,58.35,3.32,34.54-18.6,63.73-52,71.36-.08,1.18-.23,2.46-.23,3.73,0,20.69.08,41.37-.1,62.06,0,3.39,1.29,4.27,4.25,5.05a65.59,65.59,0,0,1,48.41,65.16c-1.14,35.95-28.9,61.78-60.55,63.91-35.67,2.4-65.29-21.83-70.59-56.56-4.89-32,16.7-63.87,46.43-72,3.38-.92,4.08-2.42,4.06-5.66C386.92,511,387,489.14,387,467" transform="translate(-335.58 -40.01)"/><path class="cls-3" d="M712.27,1111.64l17.63-9c9.31,18,31.2,20.78,46.63,15.21,8.16-2.95,11.35-8.17,10.6-16.46a10.65,10.65,0,0,0-7.69-9.56c-7.23-2.28-14.81-3.46-22.19-5.3-7.67-1.91-15.57-3.33-22.85-6.26-10.14-4.07-15.87-12.11-16.84-23.26-1.07-12.27,2.88-22.18,13.53-28.91a47,47,0,0,1,25.29-7.58c9.83,0,19.65-.4,29,3.6,8.81,3.77,15.72,9.49,20,18.59l-16.64,8.5c-10.92-11.82-24-14.81-38.87-10.57a19.44,19.44,0,0,0-8.3,5.16c-5.21,5.47-3.92,13.35,2.74,16.81a45.81,45.81,0,0,0,11.84,3.87c8.15,1.67,16.41,2.82,24.59,4.36a43.48,43.48,0,0,1,7.41,2.35c12.13,4.66,19.51,13.15,20.57,26.39,1.18,14.77-3.73,27.1-17.58,33.3-22.66,10.14-45.37,10.4-66.69-4.18-5.84-4-9.32-10.1-12.2-17.07" transform="translate(-335.58 -40.01)"/><path class="cls-3" d="M485.51,1103.52v33.12h-21V1023.87c3.61,0,7.45,0,11.28,0,14.89,0,29.79,0,44.67.17,17.79.26,32.81,11.74,37,28.59,6.63,26.88-10.11,50.44-38.63,50.86-10.83.16-21.67,0-33.25,0m.12-19.61c10,0,19.68,0,29.33,0a36.58,36.58,0,0,0,5.19-.21c15.85-2.31,20.35-16.25,15.29-28.5-3.28-8-10.44-10.69-18.71-10.71s-16.46,0-24.69,0h-6.41Z" transform="translate(-335.58 -40.01)"/><path class="cls-3" d="M422.45,1024.22h20.82c.06,1.31.15,2.43.15,3.55,0,21.55.23,43.1-.06,64.64-.3,22-11.29,43.28-41.17,46.81-20.72,2.45-41.38-3.24-51.94-24a51.69,51.69,0,0,1-5.65-21.09c-.7-23.11-.26-46.26-.26-69.73h20.94c0,3.54,0,7,0,10.41.22,20.23,0,40.49.87,60.69.5,11.07,6.71,19.26,17.64,22.91,11.36,3.79,22,2.5,30.77-6.19,5.89-5.82,7.62-13.56,7.71-21.5.21-20.53.13-41.06.17-61.6,0-1.55,0-3.1,0-4.85" transform="translate(-335.58 -40.01)"/><path class="cls-3" d="M689.83,1108.6l14.66,14.35c-18,21-62.64,22.63-85.21,1.75s-22.95-64.49-.13-87.19c22.17-22.06,64.15-21.52,83.86.74l-13.16,14.19c-22.61-14.66-45.15-13.49-58.13,3.11-12.85,16.43-11.05,39.86,2.42,53.58,12.33,12.56,37.85,15.49,55.69-.52" transform="translate(-335.58 -40.01)"/><rect class="cls-3" x="489.99" y="984.27" width="20.42" height="112.46"/></g></svg>
